<svg xmlns="http://www.w3.org/2000/svg" version="1.1" xmlns:xlink="http://www.w3.org/1999/xlink" xmlns:svgjs="http://svgjs.dev/svgjs" width="2220" height="560" preserveAspectRatio="none" viewBox="0 0 2220 560"><g mask="url(&quot;#SvgjsMask1026&quot;)" fill="none"><rect width="2220" height="560" x="0" y="0" fill="url(&quot;#SvgjsLinearGradient1027&quot;)"></rect><path d="M2220 0L1311.55 0L2220 177.76z" fill="rgba(255, 255, 255, .1)"></path><path d="M1311.55 0L2220 177.76L2220 291.71L917.9499999999999 0z" fill="rgba(255, 255, 255, .075)"></path><path d="M917.9499999999998 0L2220 291.71L2220 305.47999999999996L449.4699999999998 0z" fill="rgba(255, 255, 255, .05)"></path><path d="M449.4699999999998 0L2220 305.47999999999996L2220 344.56999999999994L272.8699999999998 0z" fill="rgba(255, 255, 255, .025)"></path><path d="M0 560L523.54 560L0 507.56z" fill="rgba(0, 0, 0, .1)"></path><path d="M0 507.56L523.54 560L1276.07 560L0 299.18z" fill="rgba(0, 0, 0, .075)"></path><path d="M0 299.18L1276.07 560L1685.54 560L0 187.62z" fill="rgba(0, 0, 0, .05)"></path><path d="M0 187.62L1685.54 560L1761.58 560L0 178.09z" fill="rgba(0, 0, 0, .025)"></path></g><defs><mask id="SvgjsMask1026"><rect width="2220" height="560" fill="#ffffff"></rect></mask><linearGradient x1="18.69%" y1="-74.11%" x2="81.31%" y2="174.11%" gradientUnits="userSpaceOnUse" id="SvgjsLinearGradient1027"><stop stop-color="#0e2a47" offset="0"></stop><stop stop-color="#00459e" offset="1"></stop></linearGradient></defs></svg>